<svg xmlns="http://www.w3.org/2000/svg" width="197" height="154">
<path d="M 77,126 77,128 79,128 80,129 81,128 83,128 83,126 83,127 82,128 81,127 81,126 81,128 80,129 79,128 79,126 Z" fill="none" stroke="black" stroke-width="1"/>
<path d="M 98,84 98,85 97,86 97,87 95,89 95,90 94,91 94,92 93,93 93,94 91,96 91,97 90,98 90,99 89,100 89,101 87,103 87,104 86,105 86,106 85,107 85,108 83,110 83,112 82,113 82,124 84,124 84,123 85,122 85,121 86,120 86,119 87,118 87,117 89,115 89,114 90,113 90,112 91,111 91,110 93,108 93,107 94,106 94,105 96,103 96,102 97,101 97,100 99,98 99,97 100,96 100,95 101,94 101,93 103,91 103,90 105,88 104,87 105,86 104,86 102,84 Z" fill="none" stroke="black" stroke-width="1"/>
<path d="M 109,65 109,66 107,68 107,69 106,70 106,71 105,72 105,73 103,75 103,76 102,77 102,80 103,81 104,81 105,82 108,82 108,81 110,79 110,78 111,77 111,76 113,74 113,73 114,72 114,71 115,70 115,68 114,67 113,67 112,66 110,66 Z" fill="none" stroke="black" stroke-width="1"/>
<path d="M 66,61 65,62 64,62 63,63 63,68 65,70 66,70 69,73 69,74 70,75 70,76 71,77 71,78 73,80 73,81 74,82 74,83 75,84 75,85 77,87 77,89 78,90 78,103 78,90 77,89 77,86 75,84 75,83 74,82 74,81 73,80 73,79 71,77 71,76 70,75 70,74 69,73 69,72 67,70 66,70 63,67 63,64 66,61 67,61 68,62 69,62 71,64 71,70 72,71 72,72 74,74 74,75 75,76 75,77 77,79 77,80 78,81 78,82 80,84 80,85 82,87 82,102 82,87 81,86 81,85 80,84 80,83 78,81 78,80 77,79 77,78 75,76 75,75 74,74 74,73 72,71 72,70 71,69 71,63 70,62 68,62 67,61 Z" fill="none" stroke="black" stroke-width="1"/>
<path d="M 45,61 44,62 43,62 42,63 42,66 44,68 44,69 45,70 45,71 46,72 46,73 48,75 48,76 49,77 49,78 51,80 51,81 52,82 52,83 54,85 54,86 55,87 55,88 56,89 56,90 58,92 58,93 59,94 59,95 60,96 60,97 62,99 62,100 63,101 63,102 65,104 65,105 66,106 66,107 68,109 68,110 69,111 69,112 70,113 70,114 72,116 72,117 73,118 73,119 75,121 75,123 76,124 76,123 75,122 75,120 73,118 73,117 72,116 72,115 70,113 70,112 69,111 69,110 68,109 68,108 66,106 66,105 65,104 65,103 63,101 63,100 62,99 62,98 60,96 60,95 59,94 59,93 58,92 58,91 56,89 56,88 55,87 55,86 54,85 54,84 52,82 52,81 51,80 51,79 49,77 49,76 48,75 48,74 46,72 46,71 45,70 45,69 44,68 44,67 42,65 42,64 44,62 45,62 46,61 47,61 49,63 49,64 50,65 50,66 52,68 52,69 53,70 53,71 55,73 55,74 56,75 56,76 57,77 57,78 58,79 58,80 60,82 60,83 61,84 61,85 62,86 62,87 64,89 64,90 65,91 65,92 67,94 67,95 68,96 68,97 69,98 69,99 70,100 70,101 72,103 72,104 73,105 73,106 74,107 74,108 76,110 76,111 77,112 77,121 77,111 76,110 76,109 74,107 74,106 73,105 73,104 72,103 72,102 70,100 70,99 69,98 69,97 68,96 68,95 67,94 67,93 65,91 65,90 64,89 64,88 62,86 62,85 61,84 61,83 60,82 60,81 58,79 58,78 57,77 57,76 56,75 56,74 55,73 55,72 53,70 53,69 52,68 52,67 50,65 50,64 49,63 49,62 48,61 Z" fill="none" stroke="black" stroke-width="1"/>
<path d="M 100,59 99,60 98,60 97,61 97,62 96,63 96,64 94,66 94,67 93,68 93,69 91,71 91,72 92,73 91,74 92,74 93,75 94,75 96,77 98,77 99,76 99,75 100,74 100,73 102,71 102,70 103,69 103,68 105,66 105,62 104,61 103,61 102,60 101,60 Z" fill="none" stroke="black" stroke-width="1"/>
<path d="M 35,43 34,44 33,44 32,45 32,48 34,50 34,51 35,52 35,53 36,54 36,55 37,56 37,57 39,59 42,59 44,57 45,57 44,56 44,53 42,51 42,50 41,49 41,48 39,46 39,45 37,43 Z" fill="none" stroke="black" stroke-width="1"/>
<path d="M 48,36 47,37 45,37 44,38 43,38 42,39 42,40 41,41 41,42 43,44 43,45 44,46 44,47 45,48 45,49 47,51 47,52 48,53 48,54 51,54 52,53 53,53 55,51 56,51 55,50 55,48 54,47 54,46 53,45 53,44 51,42 51,41 50,40 50,39 49,38 49,37 Z" fill="none" stroke="black" stroke-width="1"/>
<path d="M 56,29 56,32 57,33 57,34 59,36 59,37 60,38 60,39 62,41 62,42 63,43 63,44 64,45 64,46 66,48 66,49 67,50 67,51 69,53 69,54 70,55 70,56 71,57 71,58 73,60 73,61 74,62 74,63 75,64 75,65 77,67 77,68 78,69 78,70 79,71 81,71 81,70 82,69 82,68 84,66 84,65 85,64 85,63 87,61 87,60 88,59 88,58 89,57 89,56 90,55 90,54 92,52 92,51 93,50 93,49 95,47 95,46 96,45 96,44 98,42 98,41 99,40 99,39 100,38 100,37 102,35 102,34 103,33 103,32 104,31 104,29 Z" fill="none" stroke="black" stroke-width="1"/>
<path d="M 30,13 31,13 32,14 33,14 34,15 35,15 36,16 37,16 39,18 41,18 42,19 63,19 65,17 68,17 71,20 71,23 70,24 69,24 67,26 66,25 65,25 63,23 40,23 39,22 38,22 36,20 35,20 34,19 33,19 30,16 27,16 27,18 29,20 29,21 31,23 31,24 32,25 32,26 34,28 34,29 35,30 35,31 36,32 36,33 37,34 37,35 38,36 40,36 41,35 42,35 43,34 44,34 46,32 47,32 48,31 49,31 50,32 50,33 51,34 51,35 53,37 53,38 54,39 54,40 55,41 55,42 57,44 57,45 58,46 58,47 59,48 59,49 61,51 58,54 57,54 56,55 55,55 54,56 53,56 52,57 52,61 53,62 53,63 55,65 55,66 56,67 56,68 58,70 58,71 59,72 59,73 60,74 60,75 62,77 62,78 63,79 63,80 65,82 65,83 66,84 66,85 67,86 67,87 69,89 69,90 70,91 70,92 72,94 72,95 73,96 73,97 74,98 74,99 75,100 75,101 76,102 76,103 76,101 75,100 75,99 74,98 74,97 73,96 73,95 72,94 72,93 70,91 70,90 69,89 69,88 67,86 67,85 66,84 66,83 65,82 65,81 63,79 63,78 62,77 62,76 60,74 60,73 59,72 59,71 58,70 58,69 56,67 56,66 55,65 55,64 53,62 53,61 52,60 52,58 54,56 55,56 56,55 57,55 58,54 59,54 60,53 60,52 61,51 61,50 59,48 59,47 58,46 58,45 57,44 57,43 55,41 55,40 54,39 54,38 53,37 53,36 51,34 51,33 50,32 50,31 47,31 46,32 45,32 43,34 42,34 40,36 39,36 37,34 37,33 36,32 36,31 35,30 35,29 34,28 34,27 32,25 32,24 31,23 31,22 29,20 29,19 27,17 28,16 29,16 32,19 33,19 34,20 35,20 37,22 38,22 39,23 62,23 64,25 66,25 67,26 68,25 69,25 70,24 71,24 71,19 69,17 65,17 64,18 63,18 62,19 42,19 41,18 40,18 38,16 37,16 36,15 35,15 34,14 33,14 32,13 Z" fill="none" stroke="black" stroke-width="1"/>
<path d="M 85,11 85,12 84,13 84,17 85,18 85,19 101,19 101,12 100,11 Z" fill="none" stroke="black" stroke-width="1"/>
<path d="M 131,10 130,11 107,11 106,12 105,12 105,22 104,23 82,23 80,21 80,11 29,11 79,11 80,12 80,21 81,22 81,23 105,23 105,13 107,11 129,11 130,12 129,13 127,13 126,14 125,14 123,16 122,16 121,17 120,17 118,19 117,19 116,20 116,21 115,22 115,23 113,25 113,26 112,27 112,28 111,29 111,30 110,31 110,32 108,34 108,35 107,36 107,37 105,39 103,39 102,40 102,41 101,42 101,44 102,45 102,47 103,47 104,48 107,48 108,47 109,47 109,46 110,45 110,40 111,39 111,38 112,37 112,36 114,34 114,33 115,32 115,31 117,29 117,28 118,27 118,26 123,21 124,21 125,20 126,20 128,18 129,18 131,16 132,17 132,18 130,20 130,21 128,23 128,24 127,25 127,26 126,27 126,28 124,30 124,31 123,32 123,33 122,34 122,35 120,37 120,38 119,39 119,40 118,41 118,42 116,44 116,45 115,46 115,47 114,48 114,49 113,50 113,51 111,53 111,54 110,55 110,56 107,59 105,57 104,57 103,56 102,56 100,54 97,54 96,55 96,56 95,57 95,58 93,60 93,61 92,62 92,63 91,64 91,65 89,67 89,68 88,69 88,70 86,72 86,75 88,77 89,77 90,78 91,78 93,80 94,80 95,81 95,82 93,84 93,85 92,86 92,87 90,89 90,90 89,91 89,92 87,94 87,95 86,96 86,97 85,98 85,99 84,100 84,102 84,101 85,100 85,99 86,98 86,97 87,96 87,95 89,93 89,92 90,91 90,90 92,88 92,87 93,86 93,85 95,83 95,80 94,80 92,78 91,78 90,77 89,77 86,74 86,73 88,71 88,70 89,69 89,68 91,66 91,65 92,64 92,63 93,62 93,61 95,59 95,58 96,57 96,56 98,54 99,54 101,56 102,56 103,57 104,57 106,59 107,59 108,58 109,58 110,57 110,56 111,55 111,54 113,52 113,51 114,50 114,49 115,48 115,47 116,46 116,45 118,43 118,42 119,41 119,40 120,39 120,38 122,36 122,35 123,34 123,33 124,32 124,31 126,29 126,28 127,27 127,26 128,25 128,24 130,22 130,21 132,19 132,17 133,16 130,16 128,18 127,18 125,20 124,20 123,21 122,21 118,25 118,26 117,27 117,28 115,30 115,31 114,32 114,33 112,35 112,36 111,37 111,38 110,39 110,44 109,45 109,46 107,48 105,48 104,47 103,47 102,46 102,45 101,44 101,42 104,39 106,39 107,38 107,37 108,36 108,35 110,33 110,32 111,31 111,30 112,29 112,28 113,27 113,26 115,24 115,23 116,22 116,21 118,19 119,19 121,17 122,17 123,16 124,16 126,14 127,14 128,13 130,13 130,12 131,11 132,12 133,12 134,13 133,14 134,13 135,14 135,13 134,13 133,12 134,11 134,10 Z" fill="none" stroke="black" stroke-width="1"/>
<path d="M 10,6 9,7 8,7 10,9 10,10 12,12 12,13 13,14 13,15 14,16 14,17 16,19 16,20 17,21 17,22 18,23 18,24 20,26 20,27 21,28 21,29 22,30 22,31 24,33 24,34 25,35 25,36 26,37 26,38 28,40 28,41 31,41 32,40 33,40 34,39 34,36 32,34 32,33 31,32 31,31 29,29 29,28 28,27 28,26 27,25 27,24 25,22 25,21 24,20 24,19 22,17 22,16 21,15 21,14 19,12 19,11 18,10 17,10 16,9 15,9 13,7 12,7 11,6 Z" fill="none" stroke="black" stroke-width="1"/>
<path d="M 8,5 Z" fill="none" stroke="black" stroke-width="1"/>
<path d="M 154,2 154,4 153,5 150,5 149,6 148,6 146,8 145,8 143,10 142,10 140,12 140,13 138,15 138,16 137,17 137,18 135,20 135,21 134,22 134,23 133,24 133,25 131,27 131,28 130,29 130,30 128,32 128,33 127,34 127,35 126,36 126,37 124,39 124,40 123,41 123,42 121,44 121,45 120,46 120,47 118,49 118,50 117,51 117,52 116,53 116,54 114,56 114,57 113,58 113,59 112,60 112,62 113,63 114,63 115,64 118,64 119,63 119,62 121,60 121,59 122,58 122,57 124,55 124,54 125,53 125,52 126,51 126,50 128,48 128,47 129,46 129,45 130,44 130,43 132,41 132,40 133,39 133,38 134,37 134,36 136,34 136,33 137,32 137,31 138,30 138,29 140,27 140,26 141,25 141,24 142,23 142,22 143,21 143,20 145,18 145,17 146,16 146,15 147,14 147,13 149,11 149,10 151,8 151,7 149,9 149,10 147,12 147,13 146,14 146,15 145,16 145,17 143,19 143,20 142,21 142,22 141,23 141,24 140,25 140,26 138,28 138,29 137,30 137,31 136,32 136,33 134,35 134,36 133,37 133,38 132,39 132,40 130,42 130,43 129,44 129,45 128,46 128,47 126,49 126,50 125,51 125,52 124,53 124,54 122,56 122,57 121,58 121,59 120,60 120,61 117,64 116,64 115,63 114,63 112,61 113,60 113,59 114,58 114,57 116,55 116,54 117,53 117,52 118,51 118,50 120,48 120,47 121,46 121,45 123,43 123,42 124,41 124,40 126,38 126,37 127,36 127,35 128,34 128,33 130,31 130,30 131,29 131,28 133,26 133,25 134,24 134,23 135,22 135,21 137,19 137,18 138,17 138,16 140,14 140,13 143,10 144,10 146,8 147,8 150,5 154,5 Z" fill="none" stroke="black" stroke-width="1"/>
<path d="M 152,0 151,1 152,1 Z" fill="none" stroke="black" stroke-width="1"/>
<path d="M 106,0 106,1 105,2 105,6 106,7 139,7 140,6 141,6 142,5 143,5 145,3 146,3 147,2 148,2 149,1 149,0 146,0 148,0 149,1 148,2 146,2 145,3 144,3 142,5 141,5 139,7 107,7 105,5 105,2 106,1 144,1 107,1 Z" fill="none" stroke="black" stroke-width="1"/>
<path d="M 85,0 85,1 84,2 84,5 85,6 85,7 100,7 100,6 101,5 101,2 100,1 100,0 99,1 86,1 Z" fill="none" stroke="black" stroke-width="1"/>
<path d="M 7,0 8,1 9,1 10,0 11,1 11,2 13,2 15,4 16,4 17,5 18,5 20,7 80,7 80,1 79,0 78,1 15,1 14,0 10,0 9,1 8,0 Z" fill="none" stroke="black" stroke-width="1"/>
<path d="M 0,0 0,2 1,3 1,4 3,6 3,7 4,8 4,9 5,10 5,11 7,13 7,14 8,15 8,16 9,17 9,18 11,20 11,21 12,22 12,23 14,25 14,26 15,27 15,28 17,30 17,31 18,32 18,33 19,34 19,35 21,37 21,38 22,39 22,40 24,42 24,43 25,44 25,45 26,46 26,47 28,49 28,50 29,51 29,52 30,53 30,54 32,56 32,57 33,58 33,59 35,61 35,62 36,63 36,64 37,65 37,66 39,68 39,69 40,70 40,71 42,73 42,74 43,75 43,76 44,77 44,78 46,80 46,81 47,82 47,83 48,84 48,85 50,87 50,88 51,89 51,90 52,91 52,92 54,94 54,95 55,96 55,97 56,98 56,99 58,101 58,102 59,103 59,104 60,105 60,106 62,108 62,109 63,110 63,111 64,112 64,113 65,114 65,115 67,117 67,118 68,119 68,120 69,121 69,122 71,124 71,125 72,126 72,127 73,128 73,129 75,131 75,132 78,132 79,133 80,133 81,132 84,132 86,130 86,129 87,128 87,127 88,126 88,125 90,123 90,122 91,121 91,120 92,119 92,118 94,116 94,115 95,114 95,113 96,112 96,111 97,110 97,109 99,107 99,106 100,105 100,104 101,103 101,102 103,100 103,99 104,98 104,97 105,96 105,95 107,93 107,92 108,91 108,90 109,89 109,88 111,86 111,85 112,84 112,83 113,82 113,81 115,79 115,78 116,77 116,76 117,75 117,74 119,72 119,71 120,70 120,69 122,67 122,66 123,65 123,64 124,63 124,62 126,60 126,59 127,58 127,57 128,56 128,55 130,53 130,52 131,51 131,50 133,48 133,47 134,46 134,45 136,43 136,42 137,41 137,40 138,39 138,38 140,36 140,35 141,34 141,33 143,31 143,30 144,29 144,28 145,27 145,26 147,24 147,23 148,22 148,21 150,19 150,18 151,17 151,16 152,15 152,14 154,12 154,11 155,10 155,9 157,7 157,6 158,5 158,4 159,3 159,2 160,1 160,0 159,1 159,2 158,3 158,4 157,5 157,6 155,8 155,9 154,10 154,11 152,13 152,14 151,15 151,16 150,17 150,18 148,20 148,21 147,22 147,23 145,25 145,26 144,27 144,28 143,29 143,30 141,32 141,33 140,34 140,35 138,37 138,38 137,39 137,40 136,41 136,42 134,44 134,45 133,46 133,47 131,49 131,50 130,51 130,52 128,54 128,55 127,56 127,57 126,58 126,59 124,61 124,62 123,63 123,64 122,65 122,66 120,68 120,69 119,70 119,71 117,73 117,74 116,75 116,76 115,77 115,78 113,80 113,81 112,82 112,83 111,84 111,85 109,87 109,88 108,89 108,90 107,91 107,92 105,94 105,95 104,96 104,97 103,98 103,99 101,101 101,102 100,103 100,104 99,105 99,106 97,108 97,109 96,110 96,111 95,112 95,113 94,114 94,115 92,117 92,118 91,119 91,120 90,121 90,122 88,124 88,125 87,126 87,127 86,128 86,129 83,132 81,132 80,133 79,133 78,132 76,132 75,131 75,130 73,128 73,127 72,126 72,125 71,124 71,123 69,121 69,120 68,119 68,118 67,117 67,116 65,114 65,113 64,112 64,111 63,110 63,109 62,108 62,107 60,105 60,104 59,103 59,102 58,101 58,100 56,98 56,97 55,96 55,95 54,94 54,93 52,91 52,90 51,89 51,88 50,87 50,86 48,84 48,83 47,82 47,81 46,80 46,79 44,77 44,76 43,75 43,74 42,73 42,72 40,70 40,69 39,68 39,67 37,65 37,64 36,63 36,62 35,61 35,60 33,58 33,57 32,56 32,55 30,53 30,52 29,51 29,50 28,49 28,48 26,46 26,45 25,44 25,43 24,42 24,41 22,39 22,38 21,37 21,36 19,34 19,33 18,32 18,31 17,30 17,29 15,27 15,26 14,25 14,24 12,22 12,21 11,20 11,19 9,17 9,16 8,15 8,14 7,13 7,12 5,10 5,9 4,8 4,7 2,5 2,4 1,3 1,2 0,1 Z" fill="none" stroke="black" stroke-width="1"/>
</svg>