<?xml version="1.0" standalone="no"?>
<!DOCTYPE svg PUBLIC "-//W3C//DTD SVG 20010904//EN"
 "http://www.w3.org/TR/2001/REC-SVG-20010904/DTD/svg10.dtd">
<svg version="1.0" xmlns="http://www.w3.org/2000/svg"
 width="128" height="128" viewBox="0 0 533.000000 426.000000"
 preserveAspectRatio="xMidYMid meet">

<g transform="translate(0.000000,426.000000) scale(0.100000,-0.100000)"
fill="#000000" stroke="none">
<path d="M2638 3576 c-1 -2 -37 -6 -78 -9 -116 -9 -280 -57 -324 -95 -10 -10
-20 -15 -23 -13 -9 7 -73 -34 -73 -47 0 -7 -5 -10 -10 -7 -32 20 -290 -256
-290 -310 0 -10 -5 -13 -12 -9 -10 6 -10 4 -3 -7 6 -8 10 -21 9 -29 -1 -8 -2
-21 -3 -29 -1 -9 -5 -10 -13 -3 -9 7 -17 5 -28 -6 -8 -9 -14 -17 -12 -17 2 0
-2 -13 -8 -30 -6 -16 -12 -44 -13 -62 -1 -17 -5 -29 -8 -27 -3 2 -12 -22 -19
-53 -9 -42 -9 -58 -1 -61 6 -2 11 -8 11 -13 0 -6 -4 -7 -10 -4 -10 6 -12 -7
-14 -107 -1 -36 3 -59 11 -62 8 -4 12 -41 3 -41 -1 0 -4 -13 -6 -28 -4 -24 -2
-28 14 -23 12 4 19 1 19 -8 0 -8 -6 -12 -14 -9 -9 4 -12 -2 -9 -18 3 -13 5
-26 6 -29 2 -3 2 -8 1 -12 -2 -15 33 -118 60 -176 19 -40 39 -67 54 -74 14 -6
25 -16 25 -21 0 -5 -7 -3 -17 4 -15 13 -15 12 -5 -7 35 -66 159 -207 174 -198
4 3 11 -2 14 -10 3 -9 10 -16 16 -16 5 0 7 4 3 9 -3 5 0 13 6 17 7 4 9 3 5 -4
-3 -6 -2 -13 3 -17 6 -3 8 -11 5 -18 -4 -12 73 -67 95 -67 6 0 11 -5 11 -12 0
-6 7 -3 15 8 12 14 14 15 9 2 -6 -18 34 -50 66 -53 10 -1 25 -7 34 -14 13 -11
16 -11 16 0 0 9 3 10 8 3 14 -20 79 -43 136 -47 31 -3 60 -7 63 -11 12 -12
220 -5 283 10 36 8 75 15 87 15 12 0 25 4 28 9 4 6 11 7 17 4 7 -5 8 -2 4 5
-5 8 -3 11 5 10 8 -1 23 1 34 5 43 16 145 67 145 72 0 3 -6 2 -12 -2 -9 -5 -9
-2 1 9 15 18 26 23 16 7 -10 -16 5 -12 36 11 16 11 27 25 24 30 -4 5 0 7 7 4
19 -7 133 99 123 115 -5 8 -4 11 2 7 6 -4 16 0 23 8 7 8 9 15 4 16 -5 0 2 5
15 10 19 8 21 12 11 24 -7 8 -17 12 -24 8 -6 -3 -8 -2 -3 2 10 11 48 14 41 3
-3 -4 -3 -8 0 -8 12 0 56 82 50 92 -4 6 -3 8 3 5 9 -6 21 9 28 33 0 3 11 24
23 48 13 23 20 47 17 51 -2 5 1 14 9 20 17 14 15 39 -5 52 -11 7 -11 9 -1 9 7
0 10 4 7 10 -4 6 1 7 12 3 16 -6 16 -5 4 10 -12 15 -12 17 1 12 9 -4 15 0 15
10 0 18 -2 18 -30 4 -21 -10 -21 -10 -3 5 11 9 25 16 32 16 31 0 24 359 -8
397 -6 7 -7 13 -3 13 4 0 2 6 -4 14 -6 8 -11 18 -10 22 4 22 -2 35 -13 28 -7
-4 -8 -3 -4 4 4 6 4 23 0 37 -5 20 -9 24 -16 13 -7 -10 -8 -8 -7 7 2 33 0 45
-11 45 -5 0 -7 -8 -4 -17 4 -14 3 -14 -7 1 -9 15 -9 21 -1 24 15 5 -23 81 -43
89 -8 3 -13 8 -10 13 2 4 -2 16 -11 26 -14 18 -15 18 -8 -6 3 -14 5 -23 3 -20
-2 3 -13 16 -24 29 -11 14 -14 21 -7 17 6 -4 12 -4 12 1 -1 13 -24 39 -40 46
-12 4 -12 6 -1 6 9 1 4 11 -14 27 -15 14 -34 23 -42 20 -8 -3 -12 -2 -8 3 3 5
2 11 -2 14 -5 2 -2 2 5 1 19 -5 15 0 -20 26 -18 13 -27 16 -20 7 15 -17 9 -37
-11 -37 -9 0 -9 2 0 8 19 12 -7 64 -27 56 -8 -3 -11 -2 -7 2 3 4 -3 15 -15 26
-15 12 -25 15 -32 8 -5 -5 -15 -10 -20 -10 -6 0 -4 5 4 10 13 9 12 13 -5 26
-31 24 -78 47 -70 34 5 -7 0 -7 -14 2 -12 7 -21 16 -21 21 0 4 -5 5 -10 2 -6
-4 -7 -11 -4 -17 4 -7 2 -8 -4 -4 -6 4 -8 14 -5 23 4 10 2 14 -4 10 -5 -3 -28
3 -50 14 -22 11 -61 21 -86 22 -25 1 -43 5 -40 10 2 4 -4 7 -14 8 -55 2 -150
10 -160 13 -6 3 -13 3 -15 2z m342 -81 c7 -9 8 -15 2 -15 -5 0 -12 7 -16 15
-3 8 -4 15 -2 15 2 0 9 -7 16 -15z m-696 -19 c-3 -8 -14 -14 -24 -13 -10 1
-16 5 -14 9 3 5 9 6 14 3 5 -3 11 -1 15 5 9 15 15 12 9 -4z m36 10 c0 -3 -4
-8 -10 -11 -5 -3 -10 -1 -10 4 0 6 5 11 10 11 6 0 10 -2 10 -4z m854 -85 c3
-5 -1 -11 -9 -14 -9 -4 -12 -1 -8 9 6 16 10 17 17 5z m-1101 -66 c7 -17 -6
-27 -41 -31 l-24 -2 23 24 c26 28 35 30 42 9z m-78 -72 c-2 -16 -4 -30 -4 -33
-2 -11 -41 -9 -47 2 -5 7 -2 9 9 5 9 -3 18 0 21 9 4 10 2 13 -7 8 -6 -4 -3 2
8 14 11 11 21 21 22 21 1 1 0 -11 -2 -26z m1311 -2 c0 -11 -4 -17 -8 -15 -4 3
-8 1 -8 -5 0 -5 6 -12 13 -14 9 -4 9 -6 0 -6 -17 -1 -23 12 -16 37 7 27 19 29
19 3z m-1181 -67 c9 3 14 10 11 15 -3 4 16 8 43 8 27 0 48 -4 50 -11 1 -6 3
-42 4 -79 2 -57 0 -65 -10 -50 -10 13 -10 18 -1 24 9 6 10 11 2 19 -7 7 -21 0
-48 -26 -30 -29 -35 -39 -25 -50 7 -8 9 -17 5 -21 -3 -3 -6 -1 -6 6 0 7 -5 9
-10 6 -6 -4 -7 -12 -3 -18 4 -7 8 -21 10 -32 1 -11 -1 -14 -3 -7 -14 32 -21 3
-23 -90 -3 -132 -5 -149 -19 -174 -6 -12 -8 -24 -5 -28 3 -3 -1 -6 -10 -6 -9
0 -17 -4 -17 -9 0 -5 -7 -16 -15 -24 -13 -13 -12 -17 2 -29 10 -7 14 -8 10 -1
-4 6 -3 14 2 18 6 3 8 -5 6 -18 -3 -14 4 -32 18 -47 26 -30 28 -43 31 -184 1
-79 5 -110 14 -112 7 -1 8 0 2 3 -5 2 -10 10 -10 16 0 8 4 7 12 -1 16 -16 20
-44 5 -35 -7 4 -6 -1 2 -10 10 -13 10 -17 1 -17 -10 0 -10 -3 0 -15 7 -8 9
-15 5 -15 -5 0 0 -9 10 -20 14 -15 21 -17 32 -9 11 10 12 8 7 -6 -5 -13 -4
-16 5 -11 7 5 10 2 9 -6 -2 -7 2 -12 7 -11 14 2 12 -37 -3 -64 -9 -17 -9 -23
1 -27 6 -3 1 -3 -13 0 -14 3 -46 16 -72 28 -26 12 -44 18 -41 12 3 -6 -10 7
-30 29 -64 71 -75 105 -83 255 -7 151 -19 183 -70 200 -17 6 -37 22 -44 35 -7
14 -15 23 -18 20 -3 -2 0 -11 7 -19 9 -10 9 -15 -1 -19 -9 -3 -13 6 -14 29 0
18 3 31 7 28 4 -2 10 4 14 15 3 10 19 24 36 31 16 7 41 26 54 42 23 27 25 38
25 131 0 56 5 122 11 147 6 25 12 50 13 55 1 6 6 16 10 24 7 10 5 12 -5 7 -8
-4 -6 -1 5 8 10 8 15 19 11 25 -3 6 0 9 7 6 8 -3 27 9 43 26 17 18 25 29 18
25 -6 -3 -15 -1 -19 5 -5 8 -3 9 6 4 10 -6 12 -3 7 11 -7 19 -7 19 7 0 9 -11
22 -16 31 -12z m1025 14 c22 -7 40 -16 40 -20 0 -5 5 -8 11 -8 6 0 22 -14 36
-30 23 -27 53 -34 37 -8 -4 7 -2 8 5 4 8 -5 9 -12 2 -20 -11 -13 16 -86 32
-86 4 0 6 -4 3 -9 -4 -5 3 -7 14 -4 19 5 20 6 3 20 -16 13 -15 13 6 2 24 -11
24 -12 6 -25 -10 -8 -23 -14 -28 -14 -5 0 -7 -15 -3 -32 3 -18 6 -70 5 -114 0
-115 4 -127 62 -158 29 -17 51 -36 54 -49 8 -33 1 -87 -9 -77 -13 13 -66 -17
-66 -38 0 -15 -2 -15 -10 -2 -9 13 -10 13 -10 -1 0 -8 5 -20 11 -26 8 -8 8
-13 0 -18 -6 -3 -10 -1 -9 6 2 6 -3 14 -10 16 -11 4 -13 -16 -10 -100 2 -58
-1 -103 -5 -100 -5 3 -7 -11 -6 -30 2 -20 0 -39 -4 -43 -4 -4 -7 -17 -7 -29 0
-12 -9 -30 -20 -40 -19 -18 -28 -41 -12 -31 5 3 9 -1 9 -9 0 -10 -4 -12 -12
-5 -9 7 -17 5 -26 -7 -8 -9 -9 -14 -2 -10 6 4 14 3 17 -2 4 -5 -2 -8 -11 -7
-9 2 -35 -8 -57 -21 -23 -12 -54 -23 -70 -23 -17 0 -39 -9 -51 -20 -20 -18
-21 -18 -21 -1 0 10 5 18 11 17 12 -1 15 6 15 35 0 13 -4 18 -12 13 -10 -6
-10 -5 -1 8 7 8 9 18 5 22 -4 4 0 6 8 4 8 -2 16 4 16 12 3 32 5 35 13 21 10
-16 31 -6 31 14 0 7 6 15 14 18 22 9 35 85 37 230 1 75 6 132 10 126 9 -15 17
1 15 33 -1 19 2 24 10 17 7 -6 17 -2 29 11 17 19 16 24 -2 18 -5 -2 -7 -7 -5
-11 1 -4 -7 -3 -18 3 -24 13 -27 22 -4 13 12 -4 15 -1 12 13 -2 10 -9 18 -16
17 -6 -2 -9 4 -6 12 3 8 -1 24 -10 37 -12 17 -16 48 -16 134 0 114 -5 144 -22
144 -5 0 -6 -4 -3 -10 3 -5 1 -10 -4 -10 -6 0 -11 5 -11 11 0 5 -6 7 -12 3 -8
-4 -10 -3 -5 2 5 5 13 10 18 10 5 1 14 2 19 3 19 2 10 24 -22 53 -17 15 -27
28 -20 28 6 0 16 -8 21 -17 6 -10 11 -13 11 -7 0 6 -8 18 -18 27 -14 12 -21
14 -29 6 -9 -9 -16 -8 -27 3 -8 9 -12 18 -9 22 3 3 12 -2 19 -12 7 -9 14 -12
14 -6 0 12 -28 39 -50 47 -13 5 -12 6 1 6 15 1 33 33 30 54 -2 10 24 9 69 -5z
m-1236 -34 c-1 -14 -6 -29 -10 -32 -4 -4 -4 1 -1 11 4 9 2 17 -5 17 -7 0 -6 5
2 15 17 20 18 19 14 -11z m1360 15 c-2 -4 -13 -7 -24 -6 -10 1 -17 4 -14 8 2
4 13 7 24 6 10 -1 17 -4 14 -8z m98 -48 c-20 -21 -30 -18 -13 3 7 8 9 21 5 28
-6 10 -5 10 8 0 15 -12 15 -15 0 -31z m-784 -31 c-7 -11 -17 -20 -22 -20 -5 0
-1 9 9 20 10 11 20 20 22 20 2 0 -2 -9 -9 -20z m192 5 c11 -13 10 -14 -4 -9
-9 3 -16 10 -16 15 0 13 6 11 20 -6z m-71 -20 c39 -20 53 -59 49 -141 -3 -66
-4 -69 -28 -70 -14 -1 -31 7 -38 17 -7 11 -17 19 -22 19 -5 0 -9 -63 -8 -139
0 -134 1 -139 19 -128 11 7 19 15 19 19 0 5 6 8 14 8 23 0 97 46 89 55 -5 4
-2 5 5 1 7 -5 32 5 60 22 26 16 57 33 70 37 13 4 20 11 16 18 -4 7 -4 9 0 5 4
-3 29 0 54 7 25 8 49 11 52 7 3 -4 17 -13 31 -20 27 -14 49 -61 49 -104 0 -33
-42 -84 -75 -92 -14 -4 -23 -11 -20 -16 3 -5 0 -12 -6 -16 -8 -5 -9 -3 -4 6 6
10 -1 11 -31 6 -22 -3 -45 -7 -51 -8 -9 -1 -13 -22 -13 -69 0 -73 -11 -88 -43
-56 -10 10 -25 16 -33 13 -9 -3 -12 -1 -9 4 3 6 -3 10 -14 10 -12 0 -21 4 -21
9 0 16 -58 41 -64 27 -2 -6 -5 -3 -5 7 -1 14 -46 42 -59 37 -2 -1 -10 7 -18
17 -11 14 -14 14 -13 3 1 -8 1 -79 0 -158 -1 -139 -2 -143 -21 -137 -11 3 -20
2 -20 -3 0 -6 -7 -12 -15 -16 -13 -4 -13 -2 -5 14 8 15 6 21 -7 29 -15 8 -24
-1 -60 -57 -23 -37 -39 -70 -37 -74 3 -4 -1 -5 -9 -2 -8 3 -18 1 -22 -5 -3 -6
-27 -11 -51 -11 -61 0 -104 40 -104 97 0 41 14 66 67 123 l32 35 -26 14 c-27
14 -27 14 -8 28 50 36 145 93 155 93 6 0 8 5 5 10 -3 6 3 10 15 10 13 0 19 4
14 12 -4 7 -3 8 4 4 7 -4 22 0 34 8 20 14 18 21 -4 17 -5 0 -8 3 -8 9 0 5 -7
10 -15 10 -8 0 -15 4 -15 8 0 9 -145 95 -156 92 -4 -1 -11 4 -16 12 -6 8 -8
-15 -5 -62 5 -100 -2 -111 -62 -93 -25 8 -54 12 -64 9 -9 -2 -15 -1 -13 3 3 4
-9 13 -26 20 -41 19 -64 73 -49 120 5 19 8 38 5 43 -3 5 0 7 8 6 7 -2 12 3 10
10 -1 6 1 11 5 10 5 -1 25 2 46 7 27 5 50 3 81 -9 49 -19 53 -18 159 43 67 39
77 48 77 72 0 15 -4 30 -10 34 -5 3 -7 11 -5 18 2 7 6 24 9 39 3 14 18 40 32
57 29 35 75 41 123 16z m-507 -13 c4 -12 -1 -18 -13 -18 -22 0 -23 2 -6 21 15
18 14 18 19 -3z m888 -11 c0 -10 -38 -7 -47 4 -5 4 -2 5 5 1 6 -4 12 -3 12 3
0 6 7 8 15 5 8 -4 15 -9 15 -13z m-303 -13 c-3 -8 -6 -5 -6 6 -1 11 2 17 5 13
3 -3 4 -12 1 -19z m-831 -33 c-1 -36 -16 -51 -16 -16 0 18 9 51 14 51 2 0 2
-16 2 -35z m1514 -17 c7 -12 6 -19 -2 -24 -7 -4 -10 -4 -6 1 4 4 1 17 -7 29
-8 11 -15 25 -15 31 0 10 11 -3 30 -37z m-1639 -16 c-7 -2 -18 1 -23 6 -8 8
-4 9 13 5 13 -4 18 -8 10 -11z m676 -4 c-3 -8 -6 -5 -6 6 -1 11 2 17 5 13 3
-3 4 -12 1 -19z m593 8 c0 -3 -4 -8 -10 -11 -5 -3 -10 -1 -10 4 0 6 5 11 10
11 6 0 10 -2 10 -4z m47 -88 c-3 -8 -6 -5 -6 6 -1 11 2 17 5 13 3 -3 4 -12 1
-19z m-700 -24 c-3 -3 -12 -4 -19 -1 -8 3 -5 6 6 6 11 1 17 -2 13 -5z m336
-18 c4 -10 0 -12 -14 -9 -10 3 -16 9 -13 14 8 13 21 11 27 -5z m752 5 c3 -5 2
-12 -3 -15 -5 -3 -9 1 -9 9 0 17 3 19 12 6z m-1078 -17 c-3 -3 -12 -4 -19 -1
-8 3 -5 6 6 6 11 1 17 -2 13 -5z m-507 -65 c-7 -11 -14 -18 -18 -15 -3 4 0 12
6 18 18 18 14 32 -5 17 -15 -13 -15 -12 -2 8 11 18 15 20 22 8 4 -8 3 -24 -3
-36z m815 41 c3 -6 -1 -7 -9 -4 -18 7 -21 14 -7 14 6 0 13 -4 16 -10z m-602
-22 c-4 -7 -8 -16 -9 -20 -1 -5 -3 -10 -4 -13 -1 -3 -3 -9 -4 -14 0 -5 -5 -13
-10 -18 -5 -5 -6 -3 -2 5 4 7 2 12 -6 12 -9 1 -7 5 4 14 14 10 15 15 5 26 -9
9 -9 11 0 6 6 -3 14 -2 18 4 3 5 8 10 11 10 3 0 2 -6 -3 -12z m762 -6 c-3 -3
-11 0 -18 7 -9 10 -8 11 6 5 10 -3 15 -9 12 -12z m429 2 c3 -8 2 -12 -4 -9 -6
3 -10 10 -10 16 0 14 7 11 14 -7z m193 -10 c-3 -4 -2 -15 3 -25 7 -12 6 -20
-2 -25 -7 -4 -10 -4 -6 1 4 4 3 14 -3 21 -10 12 -5 34 8 34 4 0 3 -3 0 -6z
m-1790 -20 c-3 -3 -12 -4 -19 -1 -8 3 -5 6 6 6 11 1 17 -2 13 -5z m1599 -13
c-8 -13 16 -29 41 -26 13 1 19 -3 16 -8 -4 -6 0 -8 8 -5 10 4 15 -1 17 -15 0
-12 -2 -17 -6 -11 -4 6 -19 14 -34 17 -31 8 -61 35 -53 48 4 5 8 9 11 9 3 0 3
-4 0 -9z m-1418 -32 c-7 -5 -17 -9 -23 -9 -5 0 -4 4 4 9 8 5 10 14 5 22 -6 11
-4 11 10 0 13 -11 14 -16 4 -22z m-41 -9 c-2 -11 -7 -23 -12 -27 -4 -5 -5 -2
-1 5 5 8 0 12 -15 12 -17 0 -19 -3 -10 -14 8 -10 8 -16 -2 -24 -10 -9 -13 -4
-13 23 0 18 4 32 7 29 4 -2 10 0 14 6 11 18 35 11 32 -10z m-160 -42 c-2 -13
-4 -5 -4 17 -1 22 1 32 4 23 2 -10 2 -28 0 -40z m398 2 c-3 -5 -12 -10 -18
-10 -7 0 -6 4 3 10 19 12 23 12 15 0z m16 -13 c-10 -9 -11 -8 -5 6 3 10 9 15
12 12 3 -3 0 -11 -7 -18z m309 3 c8 -5 11 -10 5 -10 -5 0 -17 5 -25 10 -8 5
-10 10 -5 10 6 0 17 -5 25 -10z m-723 -52 c-3 -7 -5 -2 -5 12 0 14 2 19 5 13
2 -7 2 -19 0 -25z m402 -65 c-1 -17 -3 -21 -6 -10 -2 9 -10 17 -16 17 -7 0 -6
4 3 10 20 13 20 13 19 -17z m1300 -6 c-2 -1 -12 -9 -21 -16 -15 -12 -18 -11
-18 3 0 10 8 16 22 16 12 0 19 -1 17 -3z m-1489 -22 c11 -13 10 -14 -4 -9 -9
3 -16 10 -16 15 0 13 6 11 20 -6z m1615 -36 c11 -16 1 -19 -13 -3 -7 8 -8 14
-3 14 5 0 13 -5 16 -11z m-661 -71 c12 -17 18 -20 28 -10 9 9 9 12 -2 12 -7 0
-10 3 -7 6 4 4 13 1 22 -6 14 -11 13 -14 -2 -27 -17 -14 -17 -14 0 -9 11 4 16
2 11 -5 -3 -6 3 -24 15 -40 18 -24 21 -41 19 -84 -1 -29 -5 -53 -8 -52 -3 1
-17 -7 -32 -17 -21 -14 -39 -17 -75 -12 -69 8 -72 9 -70 15 1 3 -18 39 -42 79
-24 41 -39 78 -35 82 12 11 147 89 156 89 4 1 14 -9 22 -21z m-554 -33 c-7 -9
-15 -13 -19 -10 -3 3 1 10 9 15 21 14 24 12 10 -5z m337 -32 c-3 -10 -5 -4 -5
12 0 17 2 24 5 18 2 -7 2 -21 0 -30z m480 -55 c-3 -8 -6 -5 -6 6 -1 11 2 17 5
13 3 -3 4 -12 1 -19z m-28 -70 l-21 -23 13 25 c7 14 12 36 11 50 -1 25 -1 25
9 -2 9 -23 7 -31 -12 -50z m202 55 c13 -16 12 -17 -3 -4 -10 7 -18 15 -18 17
0 8 8 3 21 -13z m-1044 -34 c0 -30 -2 -37 -9 -26 -7 13 -2 67 7 67 1 0 2 -19
2 -41z m447 25 c3 -8 2 -12 -4 -9 -6 3 -10 10 -10 16 0 14 7 11 14 -7z m-807
-16 c-3 -8 -6 -5 -6 6 -1 11 2 17 5 13 3 -3 4 -12 1 -19z m627 -2 c-3 -8 -13
-17 -22 -21 -13 -5 -13 -2 3 15 21 24 26 25 19 6z m443 -18 c-3 -7 -5 -2 -5
12 0 14 2 19 5 13 2 -7 2 -19 0 -25z m-1184 -3 c-7 -21 -12 -19 -10 4 0 11 5
18 9 15 4 -3 5 -11 1 -19z m1520 10 c-3 -9 -8 -14 -10 -11 -3 3 -2 9 2 15 9
16 15 13 8 -4z m137 11 c0 -2 -7 -7 -16 -10 -8 -3 -12 -2 -9 4 6 10 25 14 25
6z m-710 -26 c6 -11 8 -20 6 -20 -3 0 -10 9 -16 20 -6 11 -8 20 -6 20 3 0 10
-9 16 -20z m-523 -22 c-3 -7 -5 -2 -5 12 0 14 2 19 5 13 2 -7 2 -19 0 -25z
m1104 9 c-10 -9 -11 -8 -5 6 3 10 9 15 12 12 3 -3 0 -11 -7 -18z m112 -19 c-8
-14 -19 -8 -20 12 -1 16 1 17 12 7 7 -6 11 -15 8 -19z m-933 -8 c0 -5 -2 -10
-4 -10 -3 0 -8 5 -11 10 -3 6 -1 10 4 10 6 0 11 -4 11 -10z m825 0 c-3 -5 -12
-10 -18 -10 -7 0 -6 4 3 10 19 12 23 12 15 0z m-1446 -67 c-15 -18 -22 -16
-15 3 4 9 1 24 -6 33 -8 10 -5 9 10 -3 17 -15 19 -22 11 -33z m1048 31 c-3 -3
-12 -4 -19 -1 -8 3 -5 6 6 6 11 1 17 -2 13 -5z m-931 -19 c-3 -8 0 -15 6 -15
6 0 9 -2 6 -5 -3 -3 -12 -3 -21 1 -13 5 -14 9 -4 20 16 18 20 17 13 -1z m94
-92 c0 -9 -6 -7 -18 5 -11 11 -14 20 -8 24 11 7 26 -9 26 -29z m41 0 c13 -17
13 -17 -6 -3 -11 8 -22 16 -24 17 -2 2 0 3 6 3 6 0 17 -8 24 -17z m1029 -3 c6
-11 8 -20 6 -20 -3 0 -10 9 -16 20 -6 11 -8 20 -6 20 3 0 10 -9 16 -20z m-90
6 c0 -2 -8 -10 -17 -17 -16 -13 -17 -12 -4 4 13 16 21 21 21 13z m66 -14 c1
-7 0 -8 -3 -2 -2 5 -9 10 -14 10 -6 0 -7 -5 -3 -12 4 -7 3 -8 -5 -4 -14 9 -4
29 12 23 6 -2 12 -9 13 -15z m-1162 -59 c8 -19 2 -16 -25 13 -23 25 -23 26 -2
13 13 -7 25 -19 27 -26z m1319 31 c4 -4 -3 -15 -15 -25 -26 -23 -24 -23 -24 0
0 12 5 17 15 13 9 -3 12 -1 7 6 -8 13 6 17 17 6z m-1119 -156 c-3 -4 -14 -6
-24 -5 -31 5 -32 13 -1 12 16 0 27 -3 25 -7z m902 -6 c0 -14 -6 -17 -24 -14
l-23 5 23 12 c13 7 23 13 23 14 1 1 1 -7 1 -17z m-19 -28 c-3 -3 -12 -4 -19
-1 -8 3 -5 6 6 6 11 1 17 -2 13 -5z m-137 -44 c0 -5 -6 -12 -12 -17 -17 -10
-58 -11 -58 -1 0 4 7 8 15 8 8 0 15 4 15 8 0 4 9 8 20 9 11 1 20 -2 20 -7z
m-573 -6 c-3 -3 -12 -4 -19 -1 -8 3 -5 6 6 6 11 1 17 -2 13 -5z"/>
<path d="M2041 3326 c-10 -12 -8 -13 8 -9 12 3 18 9 15 14 -7 12 -10 11 -23
-5z"/>
<path d="M2920 1760 c-9 -6 -10 -10 -3 -10 6 0 15 5 18 10 8 12 4 12 -15 0z"/>
<path d="M1814 3059 c-3 -6 -2 -15 3 -20 5 -5 9 -1 9 11 0 23 -2 24 -12 9z"/>
</g>
</svg>
